HIERARCHY
ROOT hip
{
  OFFSET 0 0 0
  CHANNELS 6 Xposition Yposition Zposition Zrotation Yrotation Xrotation
  JOINT abdomen
  {
    OFFSET 0 20.6881 -0.73152
    CHANNELS 3 Zrotation Xrotation Yrotation
    JOINT chest
    {
      OFFSET 0 11.7043 -0.48768
      CHANNELS 3 Zrotation Xrotation Yrotation
      JOINT neck
      {
        OFFSET 0 22.1894 -2.19456
        CHANNELS 3 Zrotation Xrotation Yrotation
        JOINT head
        {
          OFFSET -0.24384 7.07133 1.2192
          CHANNELS 3 Zrotation Xrotation Yrotation
          JOINT leftEye
          {
            OFFSET 4.14528 8.04674 8.04672
            CHANNELS 3 Zrotation Xrotation Yrotation
            End Site
            {
              OFFSET 1 0 0
            }
          }
          JOINT rightEye
          {
            OFFSET -3.6576 8.04674 8.04672
            CHANNELS 3 Zrotation Xrotation Yrotation
            End Site
            {
              OFFSET 1 0 0
            }
          }
        }
      }
      JOINT rCollar
      {
        OFFSET -2.68224 19.2634 -4.8768
        CHANNELS 3 Zrotation Xrotation Yrotation
        JOINT rShldr
        {
          OFFSET -8.77824 -1.95073 1.46304
          CHANNELS 3 Zrotation Xrotation Yrotation
          JOINT rForeArm
          {
            OFFSET -28.1742 -1.7115 0.48768
            CHANNELS 3 Zrotation Xrotation Yrotation
            JOINT rHand
            {
              OFFSET -22.5879 0.773209 7.07136
              CHANNELS 3 Zrotation Xrotation Yrotation
              JOINT rThumb1
              {
                OFFSET -1.2192 -0.487915 3.41376
                CHANNELS 3 Zrotation Xrotation Yrotation
                JOINT rThumb2
                {
                  OFFSET -3.37035 -0.52449 3.41376
                  CHANNELS 3 Zrotation Xrotation Yrotation
                  End Site
                  {
                    OFFSET -1.78271 -1.18214 1.43049
                  }
                }
              }
              JOINT rIndex1
              {
                OFFSET -7.75947 0.938293 5.60832
                CHANNELS 3 Zrotation Xrotation Yrotation
                JOINT rIndex2
                {
                  OFFSET -2.54057 -0.884171 1.56538
                  CHANNELS 3 Zrotation Xrotation Yrotation
                  End Site
                  {
                    OFFSET -1.62519 -0.234802 1.16502
                  }
                }
              }
              JOINT rMid1
              {
                OFFSET -8.24714 1.18213 3.41376
                CHANNELS 3 Zrotation Xrotation Yrotation
                JOINT rMid2
                {
                  OFFSET -3.10165 -0.590103 1.0647
                  CHANNELS 3 Zrotation Xrotation Yrotation
                  End Site
                  {
                    OFFSET -2.48547 -0.328903 0.83742
                  }
                }
              }
              JOINT rRing1
              {
                OFFSET -8.82822 0.546677 1.51678
                CHANNELS 3 Zrotation Xrotation Yrotation
                JOINT rRing2
                {
                  OFFSET -2.60934 -0.819778 -0.0198488
                  CHANNELS 3 Zrotation Xrotation Yrotation
                  End Site
                  {
                    OFFSET -2.33842 -0.294052 0.168128
                  }
                }
              }
              JOINT rPinky1
              {
                OFFSET -8.27202 -0.0477905 -0.4584
                CHANNELS 3 Zrotation Xrotation Yrotation
                JOINT rPinky2
                {
                  OFFSET -1.82734 -0.647385 -0.700984
                  CHANNELS 3 Zrotation Xrotation Yrotation
                  End Site
                  {
                    OFFSET -1.69225 -0.51767 -0.607171
                  }
                }
              }
            }
          }
        }
      }
      JOINT lCollar
      {
        OFFSET 2.68224 19.2634 -4.8768
        CHANNELS 3 Zrotation Xrotation Yrotation
        JOINT lShldr
        {
          OFFSET 8.77824 -1.95073 1.46304
          CHANNELS 3 Zrotation Xrotation Yrotation
          JOINT lForeArm
          {
            OFFSET 28.1742 -1.7115 0.48768
            CHANNELS 3 Zrotation Xrotation Yrotation
            JOINT lHand
            {
              OFFSET 22.5879 0.773209 7.07136
              CHANNELS 3 Zrotation Xrotation Yrotation
              JOINT lThumb1
              {
                OFFSET 1.2192 -0.487915 3.41376
                CHANNELS 3 Zrotation Xrotation Yrotation
                JOINT lThumb2
                {
                  OFFSET 3.37035 -0.52449 3.41376
                  CHANNELS 3 Zrotation Xrotation Yrotation
                  End Site
                  {
                    OFFSET 1.78271 -1.18214 1.43049
                  }
                }
              }
              JOINT lIndex1
              {
                OFFSET 7.75947 0.938293 5.60832
                CHANNELS 3 Zrotation Xrotation Yrotation
                JOINT lIndex2
                {
                  OFFSET 2.54057 -0.884171 1.56538
                  CHANNELS 3 Zrotation Xrotation Yrotation
                  End Site
                  {
                    OFFSET 1.62519 -0.234802 1.16502
                  }
                }
              }
              JOINT lMid1
              {
                OFFSET 8.24714 1.18213 3.41376
                CHANNELS 3 Zrotation Xrotation Yrotation
                JOINT lMid2
                {
                  OFFSET 3.10165 -0.590103 1.0647
                  CHANNELS 3 Zrotation Xrotation Yrotation
                  End Site
                  {
                    OFFSET 2.48547 -0.328903 0.83742
                  }
                }
              }
              JOINT lRing1
              {
                OFFSET 8.82822 0.546677 1.51678
                CHANNELS 3 Zrotation Xrotation Yrotation
                JOINT lRing2
                {
                  OFFSET 2.60934 -0.819778 -0.0198488
                  CHANNELS 3 Zrotation Xrotation Yrotation
                  End Site
                  {
                    OFFSET 2.33842 -0.294052 0.168128
                  }
                }
              }
              JOINT lPinky1
              {
                OFFSET 8.27202 -0.0477905 -0.4584
                CHANNELS 3 Zrotation Xrotation Yrotation
                JOINT lPinky2
                {
                  OFFSET 1.82734 -0.647385 -0.700984
                  CHANNELS 3 Zrotation Xrotation Yrotation
                  End Site
                  {
                    OFFSET 1.69225 -0.51767 -0.607171
                  }
                }
              }
            }
          }
        }
      }
    }
  }
  JOINT rButtock
  {
    OFFSET -8.77824 4.35084 1.2192
    CHANNELS 3 Zrotation Xrotation Yrotation
    JOINT rThigh
    {
      OFFSET 0 -1.70687 -2.19456
      CHANNELS 3 Zrotation Xrotation Yrotation
      JOINT rShin
      {
        OFFSET 0 -36.8199 0.73152
        CHANNELS 3 Zrotation Xrotation Yrotation
        JOINT rFoot
        {
          OFFSET 0.73152 -45.1104 -5.12064
          CHANNELS 3 Zrotation Xrotation Yrotation
          End Site
          {
            OFFSET -1.1221 -3.69964 12.103
          }
        }
      }
    }
  }
  JOINT lButtock
  {
    OFFSET 8.77824 4.35084 1.2192
    CHANNELS 3 Zrotation Xrotation Yrotation
    JOINT lThigh
    {
      OFFSET 0 -1.70687 -2.19456
      CHANNELS 3 Zrotation Xrotation Yrotation
      JOINT lShin
      {
        OFFSET 0 -36.8199 0.73152
        CHANNELS 3 Zrotation Xrotation Yrotation
        JOINT lFoot
        {
          OFFSET -0.73152 -45.1104 -5.12064
          CHANNELS 3 Zrotation Xrotation Yrotation
          End Site
          {
            OFFSET 1.1221 -3.69964 12.103
          }
        }
      }
    }
  }
}
MOTION
Frames:	4
Frame Time:	0.03333
-3.720900016836822 69.1332015991211 12.988999937660992 2.122700046747923 21.702599376440048 10.007400289177895 -5.000279992818832 14.057199954986572 -2.8808698430657387 1.9679000414907932 -11.668899357318878 -0.7155469805002213 -6.9124603271484375 13.581600040197372 -8.271040096879005 11.25 -28.91550064086914 -13.33619937300682 0.0 0.0 0.0 0.0 0.0 0.0 0.0 0.0 0.0 33.55419874191284 29.76179927587509 22.679600715637207 -27.858299911022186 -29.825898706912994 66.97110056877136 -3.7930618645987124e-08 -0.005545499880099669 -0.0007793680197210051 -3.4788172342814505e-10 -7.7454842539737e-09 4.026219357911032e-09 -6.011191544530448e-10 -1.340367816737853e-08 6.962750376260374e-09 -3.4788172342814505e-10 -7.7454842539737e-09 4.026219357911032e-09 7.7309102565050125 5.474880114197731 0.41731400415301323 -3.4788172342814505e-10 -7.7454842539737e-09 4.026219357911032e-09 2.905540131032467 0.9651830233633518 0.102901995414868 -3.4788172342814505e-10 -7.7454842539737e-09 4.026219357911032e-09 10.27859978377819 0.7318009994924068 0.025912300043273717 -3.4788172342814505e-10 -7.7454842539737e-09 4.026219357911032e-09 2.221670038998127 -0.733487019315362 -0.2089200052432716 0.0 0.0 0.0 -34.434499740600586 46.60550057888031 -52.00009882450104 28.426300585269928 -35.07810115814209 -75.48060178756714 1.3748799730092287 -31.308500468730927 4.903550148010254 -1.2508394320320804e-09 5.453557605505921e-09 -5.32054400537163e-10 -2.1474022560141748e-09 9.264908840123098e-09 -9.464429240324534e-10 -1.2508394320320804e-09 5.453557605505921e-09 -5.32054400537163e-10 -7.7309102565050125 5.474880114197731 -0.41731400415301323 -1.2508394320320804e-09 5.453557605505921e-09 -5.32054400537163e-10 -2.905540131032467 0.9651830233633518 -0.102901995414868 -1.2508394320320804e-09 5.453557605505921e-09 -5.32054400537163e-10 -10.27859978377819 0.7318009994924068 -0.025912300043273717 -1.2508394320320804e-09 5.453557605505921e-09 -5.32054400537163e-10 -2.221670038998127 -0.733487019315362 0.2089200052432716 0.0 0.0 0.0 -45.715001821517944 -65.29079854488373 -45.58650255203247 -3.3291900157928467 76.02960169315338 3.832540065050125 -4.478289932012558 -8.618130013346672 -12.36580029129982 0.0 0.0 0.0 12.94209972023964 5.9992097318172455 1.341009959578514 -0.027081200969405472 35.358601212501526 -1.988930068910122 9.996430054306984 -6.937040090560913 35.94410061836243
-4.346600013785064 69.4635009765625 13.960799966938794 1.8200999312102795 20.503799468278885 10.14259971678257 -4.427429884672165 14.085199534893036 -2.93234009295702 1.9029900804162025 -11.701899915933609 -0.6988990120589733 -6.923779919743538 13.436299413442612 -7.868830114603043 11.320500522851944 -28.955698907375336 -12.499399781227112 0.0 0.0 0.0 0.0 0.0 0.0 0.0 0.0 0.0 34.34159874916077 30.880800783634186 22.076599895954132 -27.929601073265076 -30.211600363254547 67.59380221366882 -0.000689569023961667 1.3546400237828493 0.1903930027037859 2.941646926046815e-10 -3.4941649573738687e-09 3.013269633811433e-09 5.10311792822904e-10 -6.036771083017811e-09 5.213109943724703e-09 2.941646926046815e-10 -3.4941649573738687e-09 3.013269633811433e-09 7.7309102565050125 5.474880114197731 0.41731400415301323 2.941646926046815e-10 -3.4941649573738687e-09 3.013269633811433e-09 2.905540131032467 0.9651830233633518 0.102901995414868 2.941646926046815e-10 -3.4941649573738687e-09 3.013269633811433e-09 10.27859978377819 0.7318009994924068 0.025912300043273717 2.941646926046815e-10 -3.4941649573738687e-09 3.013269633811433e-09 2.221670038998127 -0.733487019315362 -0.2089200052432716 0.0 0.0 0.0 -35.0067999958992 44.86310005187988 -51.20720028877258 28.42609941959381 -35.07449895143509 -75.47519981861115 1.1676199827343225 -29.16880041360855 4.497429840266705 -9.131895239988808e-10 4.118305696465541e-09 -3.2741809263825417e-10 -1.5693046861997573e-09 7.008793545537628e-09 -5.88329385209363e-10 -9.131895239988808e-10 4.118305696465541e-09 -3.2741809263825417e-10 -7.7309102565050125 5.474880114197731 -0.41731400415301323 -9.131895239988808e-10 4.118305696465541e-09 -3.2741809263825417e-10 -2.905540131032467 0.9651830233633518 -0.102901995414868 -9.131895239988808e-10 4.118305696465541e-09 -3.2741809263825417e-10 -10.27859978377819 0.7318009994924068 -0.025912300043273717 -9.131895239988808e-10 4.118305696465541e-09 -3.2741809263825417e-10 -2.221670038998127 -0.733487019315362 0.2089200052432716 0.0 0.0 0.0 -40.56329905986786 -66.03910267353058 -40.89530020952225 -3.1818700209259987 75.39810240268707 3.5959501191973686 -4.388889893889427 -8.911880180239677 -11.932699978351593 0.0 0.0 0.0 13.73280018568039 3.2923901081085205 1.359440004453063 0.10891800164245069 40.17540067434311 -1.8452199921011925 6.692240238189697 -1.8604299612343311 34.04780030250549
-4.939499991945922 69.81199645996094 14.64029995072633 1.279600029811263 19.18550044298172 10.146999880671501 -3.5185999050736427 14.264499843120575 -3.016600012779236 1.8347799964249134 -11.642400473356247 -0.6716390093788505 -6.9292402267456055 13.259000033140182 -7.440109848976135 11.32370039820671 -28.88020008802414 -11.630299687385559 0.0 0.0 0.0 0.0 0.0 0.0 0.0 0.0 0.0 35.268500447273254 31.983599066734314 21.52529999613762 -27.979500889778137 -30.49070030450821 68.03230047225952 -0.010231700143776834 2.886809930205345 0.4060610057786107 5.039169082010631e-10 -1.5705836631241255e-09 2.240767571493052e-09 8.773781701165717e-10 -2.701199264265597e-09 3.87274212698685e-09 5.039169082010631e-10 -1.5705836631241255e-09 2.240767571493052e-09 7.7309102565050125 5.474880114197731 0.41731400415301323 5.039169082010631e-10 -1.5705836631241255e-09 2.240767571493052e-09 2.905540131032467 0.9651830233633518 0.102901995414868 5.039169082010631e-10 -1.5705836631241255e-09 2.240767571493052e-09 10.27859978377819 0.7318009994924068 0.025912300043273717 5.039169082010631e-10 -1.5705836631241255e-09 2.240767571493052e-09 2.221670038998127 -0.733487019315362 -0.2089200052432716 0.0 0.0 0.0 -35.89450120925903 43.17180097103119 -49.81829881668091 28.426700234413147 -35.084600150585175 -75.49000024795532 1.034860024228692 -27.59390115737915 4.212390147149563 -4.96243046654854e-10 1.944044925039634e-09 -1.688249540165998e-10 -8.517986316292081e-10 3.3099922802648507e-09 -2.9672264645341784e-10 -4.96243046654854e-10 1.944044925039634e-09 -1.688249540165998e-10 -7.7309102565050125 5.474880114197731 -0.41731400415301323 -4.96243046654854e-10 1.944044925039634e-09 -1.688249540165998e-10 -2.905540131032467 0.9651830233633518 -0.102901995414868 -4.96243046654854e-10 1.944044925039634e-09 -1.688249540165998e-10 -10.27859978377819 0.7318009994924068 -0.025912300043273717 -4.96243046654854e-10 1.944044925039634e-09 -1.688249540165998e-10 -2.221670038998127 -0.733487019315362 0.2089200052432716 0.0 0.0 0.0 -34.38539922237396 -66.60790264606476 -35.18629878759384 -3.0445700883865356 74.68180239200592 3.32247007638216 -4.305860102176666 -9.16109025478363 -11.652500331401825 0.0 0.0 0.0 14.663800299167633 -0.7468330208212137 1.1680900398641825 0.32715100329369307 47.094799876213074 -1.7388900183141232 3.420090079307556 3.558339849114418 29.521500170230865
-5.301100003533065 69.9832992553711 15.516099964268506 0.36780000664293766 17.796200662851334 9.84380029141903 -1.6504699923098087 14.71930056810379 -3.3295199275016785 1.7097300477325916 -11.458100527524948 -0.6608250131830573 -6.999489963054657 13.020200282335281 -7.0086899399757385 11.29770040512085 -28.757598996162415 -10.75660027563572 0.0 0.0 0.0 0.0 0.0 0.0 0.0 0.0 0.0 36.159101128578186 33.05069983005524 20.927199572324753 -28.01950067281723 -30.729298889636993 68.41460108757019 -0.02030760035268031 4.07262995839119 0.5733140045776963 -4.092726157978177e-10 -6.461391421908047e-09 2.1179857867537066e-09 -6.983214007050265e-10 -1.1132215149700642e-08 3.6629899113904685e-09 -4.092726157978177e-10 -6.461391421908047e-09 2.1179857867537066e-09 7.7309102565050125 5.474880114197731 0.41731400415301323 -4.092726157978177e-10 -6.461391421908047e-09 2.1179857867537066e-09 2.905540131032467 0.9651830233633518 0.102901995414868 -4.092726157978177e-10 -6.461391421908047e-09 2.1179857867537066e-09 10.27859978377819 0.7318009994924068 0.025912300043273717 -4.092726157978177e-10 -6.461391421908047e-09 2.1179857867537066e-09 2.221670038998127 -0.733487019315362 -0.2089200052432716 0.0 0.0 0.0 -37.08889961242676 41.52990013360977 -47.928199768066406 28.42840075492859 -35.153999626636505 -75.60220241546631 1.065889997407794 -27.918400168418884 4.272819980978966 -7.418066161335446e-11 2.148681232938543e-10 1.892885848064907e-10 -1.3301360013429075e-10 4.092726157978177e-10 3.2741809263825417e-10 -7.418066161335446e-11 2.148681232938543e-10 1.892885848064907e-10 -7.7309102565050125 5.474880114197731 -0.41731400415301323 -7.418066161335446e-11 2.148681232938543e-10 1.892885848064907e-10 -2.905540131032467 0.9651830233633518 -0.102901995414868 -7.418066161335446e-11 2.148681232938543e-10 1.892885848064907e-10 -10.27859978377819 0.7318009994924068 -0.025912300043273717 -7.418066161335446e-11 2.148681232938543e-10 1.892885848064907e-10 -2.221670038998127 -0.733487019315362 0.2089200052432716 0.0 0.0 0.0 -27.639399468898773 -66.81610107421875 -29.22430068254471 -2.9587598517537117 74.00730192661285 3.0185499787330627 -4.244020096957684 -9.435079917311668 -11.654499918222427 0.0 0.0 0.0 15.596299767494202 -6.332779973745346 -0.11576400487683713 0.7578139845281839 56.37009859085083 -1.8252100422978401 1.3895099982619286 8.29570971429348 16.77479937672615
